<?xml version="1.0" encoding="utf-8"?>
<!-- Generator: Adobe Illustrator 21.1.0, SVG Export Plug-In . SVG Version: 6.00 Build 0)  -->
<svg version="1.1" xmlns="http://www.w3.org/2000/svg" xmlns:xlink="http://www.w3.org/1999/xlink" x="0px" y="0px"
	 viewBox="0 0 360 480" style="enable-background:new 0 0 360 480;" xml:space="preserve">
<style type="text/css">
	.st0{fill:#DEE99F;}
	.st1{fill:#138241;stroke:#000000;stroke-miterlimit:10;}
	.st2{fill:#D5DBD8;stroke:#000000;stroke-miterlimit:10;}
	.st3{fill:#0A1510;stroke:#000000;stroke-miterlimit:10;}
	.st4{fill:#959E77;stroke:#000000;stroke-miterlimit:10;}
	.st5{fill:#040504;stroke:#000000;stroke-miterlimit:10;}
	.st6{fill:#B0AACC;stroke:#000000;stroke-width:2;stroke-miterlimit:10;}
	.st7{fill:none;stroke:#706E6E;stroke-width:3;stroke-miterlimit:10;}
	.st8{fill:none;stroke:#F4F4ED;stroke-width:3;stroke-miterlimit:10;}
	.st9{fill:none;stroke:#000000;stroke-width:3;stroke-miterlimit:10;}
	.st10{fill:none;stroke:#8A4A9D;stroke-width:3;stroke-miterlimit:10;}
	.st11{font-family:'MyriadPro-Regular';}
	.st12{font-size:8.1px;}
	.st13{fill:#F8F7F8;}
	.st14{font-size:7.2px;}
	.st15{fill:none;stroke:#E97324;stroke-width:3;stroke-miterlimit:10;}
	.st16{fill:none;stroke:#C62127;stroke-width:3;stroke-miterlimit:10;}
	.st17{fill:none;stroke:#5E431A;stroke-width:3;stroke-miterlimit:10;}
	.st18{fill:#2D2C7C;stroke:#000000;stroke-width:2;stroke-miterlimit:10;}
	.st19{fill:#F4F4ED;stroke:#000000;stroke-miterlimit:10;}
	.st20{font-size:7.1135px;}
	.st21{fill:none;}
	.st22{font-size:10px;}
	.st23{fill:#706E6E;stroke:#000000;stroke-miterlimit:10;}
	.st24{fill:#C62127;stroke:#000000;stroke-miterlimit:10;}
	.st25{fill:#F7F2F3;}
	.st26{fill:#E97324;stroke:#000000;stroke-miterlimit:10;}
	.st27{fill:#5E431A;stroke:#000000;stroke-miterlimit:10;}
</style>
<g id="Layer_2">
	<rect class="st0" width="360" height="480"/>
</g>
<g id="Layer_1">
	<rect x="21.7" y="135.5" class="st1" width="137.3" height="202.8"/>
	<rect x="90.4" y="302.9" class="st2" width="32" height="32"/>
	<rect x="125" y="302.9" class="st2" width="32" height="32"/>
	<rect x="122.4" y="140.8" class="st3" width="30.4" height="152.3"/>
	<circle class="st4" cx="203.3" cy="143.3" r="6.5"/>
	<circle class="st5" cx="203.3" cy="158.9" r="6.5"/>
	<circle class="st4" cx="203.3" cy="174.5" r="6.5"/>
	<circle class="st4" cx="203.3" cy="190.1" r="6.5"/>
	<circle class="st4" cx="203.3" cy="205.7" r="6.5"/>
	<circle class="st4" cx="203.3" cy="236.9" r="6.5"/>
	<circle class="st4" cx="203.3" cy="252.5" r="6.5"/>
	<circle class="st4" cx="203.3" cy="268.1" r="6.5"/>
	<circle class="st4" cx="203.3" cy="283.7" r="6.5"/>
	<circle class="st4" cx="203.3" cy="299.3" r="6.5"/>
	<path class="st6" d="M100.8,56.5V75c0,0-26.6,0-26.6,0s0-18.4,0-18.4C76.9,45.6,96.2,43.4,100.8,56.5z"/>
	<circle class="st4" cx="186.4" cy="143.3" r="6.5"/>
	<circle class="st4" cx="186.4" cy="158.9" r="6.5"/>
	<circle class="st4" cx="186.4" cy="174.5" r="6.5"/>
	<circle class="st4" cx="186.4" cy="190.1" r="6.5"/>
	<circle class="st4" cx="186.4" cy="205.7" r="6.5"/>
	<circle class="st4" cx="186.4" cy="221.3" r="6.5"/>
	<circle class="st4" cx="186.4" cy="236.9" r="6.5"/>
	<circle class="st4" cx="186.4" cy="252.5" r="6.5"/>
	<circle class="st4" cx="186.4" cy="283.7" r="6.5"/>
	<circle class="st4" cx="186.4" cy="299.3" r="6.5"/>
	<circle class="st4" cx="186.4" cy="314.8" r="6.5"/>
	<path class="st7" d="M74.4,80.3L53.6,120c0,5.9,2.1,10.7,4.7,10.7h92.3"/>
	<path class="st8" d="M81.3,80.3l-12,24.8c0,5.9,2.7,10.7,6,10.7h77.6"/>
	<path class="st9" d="M169.3,102.3H92.5c-9,0-9-5.2-6.6-10.4l-0.8,1.8l6.2-13.4"/>
	<line class="st10" x1="98.1" y1="80.3" x2="100.8" y2="86.4"/>
	<rect x="67" y="75" class="st6" width="35.1" height="5.3"/>
	<polyline class="st7" points="149.8,130.6 168.4,130.6 169.3,268.1 186.9,268.1 	"/>
	<polyline class="st8" points="152.8,115.8 186.4,115.8 186.4,127.8 	"/>
	<polyline class="st9" points="169.3,102.3 221.4,102.3 221.4,158.9 203.3,158.9 	"/>
	<text transform="matrix(1 0 0 1 56.7036 125.6367)" class="st11 st12">signal</text>
	<text transform="matrix(0.9367 0 0 1 74.2538 111.0728)" class="st11 st12">3.3V</text>
	<text transform="matrix(1 0 0 1 90.4174 98.0214)" class="st11 st12">gnd</text>
	<text transform="matrix(1 0 0 1 197.6123 160.8677)" class="st13 st11 st14">gnd</text>
	<polyline class="st15" points="203.3,314.8 310.1,314.8 310.1,197.7 	"/>
	<text transform="matrix(4.489660e-11 -1 1 4.489660e-11 304.6706 221.2984)" class="st11 st12">signal</text>
	<polyline class="st16" points="324,202.3 324,261.6 266.9,261.6 266.9,127.8 203.3,127.8 	"/>
	<text transform="matrix(4.489660e-11 -1 1 4.489660e-11 320.4033 247.9355)" class="st11 st12">5.0V</text>
	<polyline class="st17" points="338.4,194.1 338.4,286.1 235.1,286.1 235.1,221.3 203.3,221.3 	"/>
	<text transform="matrix(4.489660e-11 -1 1 4.489660e-11 333.9033 279.4355)" class="st11 st12">gnd</text>
	<polygon class="st18" points="324,205.7 302.6,193.4 302.6,168.7 324,156.3 345.4,168.7 345.4,193.4 	"/>
	<circle class="st19" cx="186.4" cy="127.8" r="6.5"/>
	<text transform="matrix(0.95 0 0 1 182.1426 130.6094)" class="st11 st20">3.3</text>
	<circle class="st4" cx="203.2" cy="330.5" r="6.5"/>
	<circle class="st4" cx="203.4" cy="346.2" r="6.5"/>
	<circle class="st4" cx="186.3" cy="330.5" r="6.5"/>
	<circle class="st4" cx="186.5" cy="346.2" r="6.5"/>
	<circle class="st4" cx="203.4" cy="361.8" r="6.5"/>
	<circle class="st4" cx="186.5" cy="361.8" r="6.5"/>
	<circle class="st4" cx="203.4" cy="377.3" r="6.5"/>
	<circle class="st4" cx="186.5" cy="377.3" r="6.5"/>
	<circle class="st4" cx="203.4" cy="392.8" r="6.5"/>
	<circle class="st4" cx="186.5" cy="392.8" r="6.5"/>
	<circle class="st4" cx="203.2" cy="408.2" r="6.5"/>
	<circle class="st4" cx="186.3" cy="408.2" r="6.5"/>
	<circle class="st4" cx="203.2" cy="423.7" r="6.5"/>
	<circle class="st21" cx="186.3" cy="423.7" r="6.5"/>
	<text transform="matrix(1 0 0 1 252.8288 16.6818)"><tspan x="0" y="0" class="st11 st22">(LED )  - pin1       3.3 Volts</tspan><tspan x="0" y="12" class="st11 st22">(MOT) - pin2       5.0 Volts</tspan><tspan x="0" y="24" class="st11 st22">(LED)   - pin6       ground</tspan><tspan x="0" y="36" class="st11 st22">(MOT) - pin14     ground</tspan><tspan x="0" y="48" class="st11 st22">(LED)   - pin19     signal</tspan><tspan x="0" y="60" class="st11 st22">(MOT) - pin26     signal</tspan></text>
	<text transform="matrix(1 0 0 1 168.3106 113.459)" class="st11 st22">pin1</text>
	<text transform="matrix(1 0 0 1 277.107 256.2591)" class="st11 st22">pin2</text>
	<text transform="matrix(1 0 0 1 128.2615 127.7542)" class="st11 st22">pin19</text>
	<text transform="matrix(1 0 0 1 203.3078 96.5729)" class="st11 st22">pin6</text>
	<text transform="matrix(1 0 0 1 243.8121 281.9946)" class="st11 st22">pin14</text>
	<text transform="matrix(1 0 0 1 216.2325 310.6536)" class="st11 st22">pin26</text>
	<circle class="st4" cx="186.5" cy="423.7" r="6.5"/>
	<circle class="st23" cx="186.9" cy="268.1" r="6.5"/>
	<text transform="matrix(1 0 0 1 182.1428 270.4355)" class="st13 st11 st14">sig</text>
	<circle class="st24" cx="203.3" cy="127.8" r="6.5"/>
	<text transform="matrix(1 0 0 1 199.3883 130.391)" class="st25 st11 st14">5.0</text>
	<circle class="st26" cx="203.3" cy="314.8" r="6.5"/>
	<text transform="matrix(1 0 0 1 199.3886 316.5434)" class="st11 st14">sig</text>
	<circle class="st27" cx="203.3" cy="221.3" r="6.5"/>
	<text transform="matrix(1 0 0 1 197.6126 224.0871)" class="st13 st11 st14">gnd</text>
</g>
</svg>
